# xmcd CD database file generated by OrangeCD 5.2
#
# Track frame offsets:
#	150
#	17101
#	39581
#	75058
#	98874
#	110463
#	124553
#	214134
#	225493
#	248224
#	272636
#	274992
#	292045
#
# Disc length: 4402 seconds
#
# Revision: 0
# Processed by: cddbd v1.5.1PL0 Copyright (c) Steve Scherf et al.
# Submitted via: OrangeCD 5.2
#
DISCID=ae11300d
DTITLE=Fleetwood Mac - Fillmore West, San Francisco, CA, 4 January 1970
DYEAR=1970
DGENRE=Blues
TTITLE0=Can't Stop Lovin'
TTITLE1=Like It This Way
TTITLE2=I've got a mind to give up Livin'
TTITLE3=Stop Messin' Around
TTITLE4=Lovin' Kind
TTITLE5=Baby Please Set a Date
TTITLE6=Rattlesnake Shake
TTITLE7=Oh Well
TTITLE8=Madison Blues
TTITLE9=Jenny Jenny
TTITLE10=(Interudium)
TTITLE11=Twist and Shout
TTITLE12=Long Tall Sally
EXTD=
EXTT0=
EXTT1=
EXTT2=
EXTT3=
EXTT4=
EXTT5=
EXTT6=
EXTT7=
EXTT8=
EXTT9=
EXTT10=
EXTT11=
EXTT12=
PLAYORDER=
